/* XPM */
static char * close_pressed_xpm[] = {
"40 40 20 1",
" 	c None",
".	c #D91717",
"+	c #C12929",
"@	c #CD3535",
"#	c #D02D2D",
"$	c #C84545",
"%	c #F3DBDB",
"&	c #EFCFCF",
"*	c #C65555",
"=	c #FEFDFD",
"-	c #EDC8C8",
";	c #EECCCC",
">	c #D61E1E",
",	c #EECDCD",
"'	c #CB6464",
")	c #ECC7C7",
"!	c #FAF0F0",
"~	c #C85B5B",
"{	c #FAF1F1",
"]	c #C65454",
".......................................+",
"........................................",
"........................................",
"........................................",
"........................................",
"........................................",
"........................................",
"........................................",
"........................................",
"........................................",
"........................................",
"........................................",
"..............@#.........@@.............",
".............$%&.........&%$............",
".............*&=-.......;=&*............",
"...............-=-.....-=-..............",
"................;=->.>-=,...............",
".................-=-'-=-................",
"..................)=!=).................",
"..................~{={~.................",
"..................)=!=).................",
".................-=-'-=-................",
"................,=->.>-=;...............",
"...............-=-.....-=-..............",
".............*&=;.......;=&]............",
".............$%&.........&%$............",
"..............@@.........@@.............",
"........................................",
"........................................",
"........................................",
"........................................",
"........................................",
"........................................",
"........................................",
"........................................",
"........................................",
"........................................",
"........................................",
"........................................",
"........................................"};
