/* XPM */
static char * close_active_xpm[] = {
"40 40 21 1",
" 	c None",
".	c #455A64",
"+	c #5E686D",
"@	c #6A7479",
"#	c #616D73",
"$	c #7E8284",
"%	c #E9E9E9",
"&	c #E0E0E0",
"*	c #8F8F8F",
"=	c #E1E1E1",
"-	c #FFFFFF",
";	c #DDDDDD",
">	c #DEDEDE",
",	c #4E6069",
"'	c #DFDFDF",
")	c #999999",
"!	c #DCDCDC",
"~	c #F7F7F7",
"{	c #939393",
"]	c #F8F8F8",
"^	c #8E8E8E",
".......................................+",
"........................................",
"........................................",
"........................................",
"........................................",
"........................................",
"........................................",
"........................................",
"........................................",
"........................................",
"........................................",
"........................................",
"..............@#.........@@.............",
".............$%&.........&%$............",
".............*=-;.......>-=*............",
"...............;-;.....;-;..............",
"................>-;,.,;-'...............",
".................;-;);-;................",
"..................!-~-!.................",
"..................{]-]{.................",
"..................!-~-!.................",
".................;-;);-;................",
"................'-;,.,;->...............",
"...............;-;.....;-;..............",
".............*=->.......>-=^............",
".............$%&.........&%$............",
"..............@@.........@@.............",
"........................................",
"........................................",
"........................................",
"........................................",
"........................................",
"........................................",
"........................................",
"........................................",
"........................................",
"........................................",
"........................................",
"........................................",
"........................................"};
