/* XPM */
static char * close_active_xpm[] = {
"40 40 25 1",
" 	c None",
".	c #4787ED",
"+	c #357DD6",
"@	c #4289E2",
"#	c #4388E5",
"$	c #418BDD",
"%	c #DAE9F8",
"&	c #CBE0F5",
"*	c #D9E9F8",
"=	c #438FDA",
"-	c #CCE1F5",
";	c #FFFFFF",
">	c #C6DDF4",
",	c #C7DEF4",
"'	c #C5DDF4",
")	c #4587EA",
"!	c #C8DEF5",
"~	c #5399DE",
"{	c #C4DCF4",
"]	c #F1F7FD",
"^	c #4A93DC",
"/	c #F3F8FD",
"(	c #F2F8FD",
"_	c #5499DE",
":	c #428EDA",
".......................................+",
"........................................",
"........................................",
"........................................",
"........................................",
"........................................",
"........................................",
"........................................",
"........................................",
"........................................",
"........................................",
"........................................",
"..............@#.........@@.............",
".............$%&.........&*$............",
".............=-;>.......,;-=............",
"...............>;'.....';>..............",
"................,;>).)>;!...............",
".................>;'~';>................",
"..................{;];{.................",
"..................^/;(^.................",
"..................{;];{.................",
".................>;'_';>................",
"................!;>).)>;,...............",
"...............>;'.....';>..............",
".............=-;,.......,;-:............",
".............$*&.........&*$............",
"..............@@.........@@.............",
"........................................",
"........................................",
"........................................",
"........................................",
"........................................",
"........................................",
"........................................",
"........................................",
"........................................",
"........................................",
"........................................",
"........................................",
"........................................"};
