/* XPM */
static char * maximize_prelight_xpm[] = {
"40 40 15 1",
" 	c None",
".	c #649AF0",
"+	c #3A89D8",
"@	c #71AAE3",
"#	c #6CA8E2",
"$	c #6CA7E2",
"%	c #77AEE4",
"&	c #FFFFFF",
"*	c #FAFCFE",
"=	c #BCD7F2",
"-	c #87B7E7",
";	c #89B9E8",
">	c #6BA7E2",
",	c #7CB1E5",
"'	c #88B8E8",
"........................................",
"........................................",
"........................................",
"........................................",
"........................................",
"........................................",
"........................................",
"........................................",
"........................................",
"........................................",
"........................................",
"........................................",
".............+@#$$$$$$$$$#@+............",
".............%&&&&&&&&&&&&&%............",
".............#*=-;-----;-=*#............",
".............>&,.........,&>............",
".............$&'.........'&$............",
".............$&-.........-&$............",
".............$&-.........-&$............",
".............$&-.........-&$............",
".............$&-.........-&$............",
".............$&-.........-&$............",
".............$&'.........'&$............",
".............>&,.........,&>............",
".............#*=-;-----;-=*#............",
".............%&&&&&&&&&&&&&%............",
".............+@#$$$$$$$$$#@+............",
"........................................",
"........................................",
"........................................",
"........................................",
"........................................",
"........................................",
"........................................",
"........................................",
"........................................",
"........................................",
"........................................",
"........................................",
"........................................"};
