/* XPM */
static char * menu_inactive_xpm[] = {
"24 24 3 1",
" 	c None",
".	c #4787ED",
"+	c #B5CFF8",
"........................",
"........................",
"........................",
"........................",
"........................",
"........................",
"........................",
"........................",
"........++++++++........",
"........++++++++........",
"........................",
"........++++++++........",
"........++++++++........",
"........................",
"........++++++++........",
"........++++++++........",
"........................",
"........................",
"........................",
"........................",
"........................",
"........................",
"........................",
"........................"};
