/* XPM */
static char * maximize_inactive_xpm[] = {
"40 40 13 1",
" 	c None",
".	c #353945",
"+	c #898989",
"@	c #AAAAAA",
"#	c #A7A7A7",
"$	c #AEAEAE",
"%	c #FFFFFF",
"&	c #FCFCFC",
"*	c #D7D7D7",
"=	c #B7B7B7",
"-	c #B9B9B9",
";	c #B1B1B1",
">	c #B8B8B8",
"........................................",
"........................................",
"........................................",
"........................................",
"........................................",
"........................................",
"........................................",
"........................................",
"........................................",
"........................................",
"........................................",
"........................................",
".............+@###########@+............",
".............$%%%%%%%%%%%%%$............",
".............#&*=-=====-=*&#............",
".............#%;.........;%#............",
".............#%>.........>%#............",
".............#%=.........=%#............",
".............#%=.........=%#............",
".............#%=.........=%#............",
".............#%=.........=%#............",
".............#%=.........=%#............",
".............#%>.........>%#............",
".............#%;.........;%#............",
".............#&*=-=====-=*&#............",
".............$%%%%%%%%%%%%%$............",
".............+@###########@+............",
"........................................",
"........................................",
"........................................",
"........................................",
"........................................",
"........................................",
"........................................",
"........................................",
"........................................",
"........................................",
"........................................",
"........................................",
"........................................"};
