/* XPM */
static char * close_prelight_xpm[] = {
"40 40 33 1",
" 	c None",
".	c #A5A5A5",
"+	c #A6A6A6",
"@	c #A7A7A7",
"#	c #A8A8A8",
"$	c #A9A9A9",
"%	c #BDBDBD",
"&	c #C2C2C2",
"*	c #B8B8B8",
"=	c #C0C0C0",
"-	c #B7B7B7",
";	c #686868",
">	c #707070",
",	c #BBBBBB",
"'	c #696969",
")	c #B5B5B5",
"!	c #6F6F6F",
"~	c #5F5F5F",
"{	c #727272",
"]	c #BABABA",
"^	c #C1C1C1",
"/	c #5E5E5E",
"(	c #737373",
"_	c #717171",
":	c #B9B9B9",
"<	c #ACACAC",
"[	c #BCBCBC",
"}	c #585858",
"|	c #5C5C5C",
"1	c #B0B0B0",
"2	c #5B5B5B",
"3	c #B6B6B6",
"4	c #929292",
"....+++++++@+++++++@@@##$$$$....+++++++@",
"%%%%%%%%%%%%%%%%%%%%%%%%%%%%%%%%%%%%%%%%",
"&&&&&&&&&&&&&&&&&&&&&&&&&&&&&&&&&&&&&&&&",
"&&&&&&&&&&&&&&&&&&&&&&&&&&&&&&&&&&&&&&&&",
"&&&&&&&&&&&&&&&&&&&&&&&&&&&&&&&&&&&&&&&&",
"&&&&&&&&&&&&&&&&&&&&&&&&&&&&&&&&&&&&&&&&",
"&&&&&&&&&&&&&&&&&&&&&&&&&&&&&&&&&&&&&&&&",
"&&&&&&&&&&&&&&&&&&&&&&&&&&&&&&&&&&&&&&&&",
"&&&&&&&&&&&&&&&&&&&&&&&&&&&&&&&&&&&&&&&&",
"&&&&&&&&&&&&&&&&&&&&&&&&&&&&&&&&&&&&&&&&",
"&&&&&&&&&&&&&&&&&&&&&&&&&&&&&&&&&&&&&&&&",
"&&&&&&&&&&&&&&&&&&&&&&&&&&&&&&&&&&&&&&&&",
"&&&&&&&&&&&&&**&=&&&&&=&--&&&&&&&&&&&&&&",
"&&&&&&&&&&&&-;>,&=&&&=&,>'-&&&&&&&&&&&&&",
"&&&&&&&&&&&&)!~{]&^&=&]{~!)&&&&&&&&&&&&&",
"&&&&&&&&&&&&&,{/(,&=&,(/{,&&&&&&&&&&&&&&",
"&&&&&&&&&&&&=&,_/{:&:{/>,&=&&&&&&&&&&&&&",
"&&&&&&&&&&&&&^&]{/{<{/{:&^&&&&&&&&&&&&&&",
"&&&&&&&&&&&&&&=&[(}|}([&=&&&&&&&&&&&&&&&",
"&&&&&&&&&&&&&&&=&12}21&=&&&&&&&&&&&&&&&&",
"&&&&&&&&&&&&&&=&[(}|}([&=&&&&&&&&&&&&&&&",
"&&&&&&&&&&&&&^&:{/{<{/{]&^&&&&&&&&&&&&&&",
"&&&&&&&&&&&&=&,>/{:&:{/_,&=&&&&&&&&&&&&&",
"&&&&&&&&&&&&&,{/(,&=&,(/{[&&&&&&&&&&&&&&",
"&&&&&&&&&&&&)!~{]&=&=&]{~!3&&&&&&&&&&&&&",
"&&&&&&&&&&&&-'>,&=&&&=&,>'-&&&&&&&&&&&&&",
"&&&&&&&&&&&&&--&=&&&&&=&--&&&&&&&&&&&&&&",
"&&&&&&&&&&&&&&&&&&&&&&&&&&&&&&&&&&&&&&&&",
"&&&&&&&&&&&&&&&&&&&&&&&&&&&&&&&&&&&&&&&&",
"&&&&&&&&&&&&&&&&&&&&&&&&&&&&&&&&&&&&&&&&",
"&&&&&&&&&&&&&&&&&&&&&&&&&&&&&&&&&&&&&&&&",
"&&&&&&&&&&&&&&&&&&&&&&&&&&&&&&&&&&&&&&&&",
"&&&&&&&&&&&&&&&&&&&&&&&&&&&&&&&&&&&&&&&&",
"&&&&&&&&&&&&&&&&&&&&&&&&&&&&&&&&&&&&&&&&",
"&&&&&&&&&&&&&&&&&&&&&&&&&&&&&&&&&&&&&&&&",
"&&&&&&&&&&&&&&&&&&&&&&&&&&&&&&&&&&&&&&&&",
"&&&&&&&&&&&&&&&&&&&&&&&&&&&&&&&&&&&&&&&&",
"&&&&&&&&&&&&&&&&&&&&&&&&&&&&&&&&&&&&&&&&",
"&&&&&&&&&&&&&&&&&&&&&&&&&&&&&&&&&&&&&&&&",
"4444444444444444444444444444444444444444"};
