/* XPM */
static char * close_inactive_xpm[] = {
"40 40 35 1",
" 	c None",
".	c #ADADAD",
"+	c #AEAEAE",
"@	c #AFAFAF",
"#	c #B0B0B0",
"$	c #B1B1B1",
"%	c #C6C6C6",
"&	c #CCCCCC",
"*	c #C1C1C1",
"=	c #CACACA",
"-	c #C0C0C0",
";	c #6D6D6D",
">	c #767676",
",	c #C4C4C4",
"'	c #6E6E6E",
")	c #BEBEBE",
"!	c #747474",
"~	c #646464",
"{	c #787878",
"]	c #C3C3C3",
"^	c #CBCBCB",
"/	c #636363",
"(	c #797979",
"_	c #C9C9C9",
":	c #777777",
"<	c #C2C2C2",
"[	c #B5B5B5",
"}	c #C5C5C5",
"|	c #5C5C5C",
"1	c #616161",
"2	c #B9B9B9",
"3	c #5F5F5F",
"4	c #606060",
"5	c #BFBFBF",
"6	c #999999",
"....+++++++@+++++++@@@##$$$$....+++++++@",
"%%%%%%%%%%%%%%%%%%%%%%%%%%%%%%%%%%%%%%%%",
"&&&&&&&&&&&&&&&&&&&&&&&&&&&&&&&&&&&&&&&&",
"&&&&&&&&&&&&&&&&&&&&&&&&&&&&&&&&&&&&&&&&",
"&&&&&&&&&&&&&&&&&&&&&&&&&&&&&&&&&&&&&&&&",
"&&&&&&&&&&&&&&&&&&&&&&&&&&&&&&&&&&&&&&&&",
"&&&&&&&&&&&&&&&&&&&&&&&&&&&&&&&&&&&&&&&&",
"&&&&&&&&&&&&&&&&&&&&&&&&&&&&&&&&&&&&&&&&",
"&&&&&&&&&&&&&&&&&&&&&&&&&&&&&&&&&&&&&&&&",
"&&&&&&&&&&&&&&&&&&&&&&&&&&&&&&&&&&&&&&&&",
"&&&&&&&&&&&&&&&&&&&&&&&&&&&&&&&&&&&&&&&&",
"&&&&&&&&&&&&&&&&&&&&&&&&&&&&&&&&&&&&&&&&",
"&&&&&&&&&&&&&**&=&&&&&=&--&&&&&&&&&&&&&&",
"&&&&&&&&&&&&-;>,&=&&&=&,>'-&&&&&&&&&&&&&",
"&&&&&&&&&&&&)!~{]&^&=&]{~!)&&&&&&&&&&&&&",
"&&&&&&&&&&&&&,{/(,&_&,(/{,&&&&&&&&&&&&&&",
"&&&&&&&&&&&&=&,:/{<&<{/>,&=&&&&&&&&&&&&&",
"&&&&&&&&&&&&&^&]{/{[{/{<&^&&&&&&&&&&&&&&",
"&&&&&&&&&&&&&&=&}(|1|(}&=&&&&&&&&&&&&&&&",
"&&&&&&&&&&&&&&&_&23|42&_&&&&&&&&&&&&&&&&",
"&&&&&&&&&&&&&&=&}(|1|(}&=&&&&&&&&&&&&&&&",
"&&&&&&&&&&&&&^&<{/{[{/{]&^&&&&&&&&&&&&&&",
"&&&&&&&&&&&&=&,>/{<&<{/:,&=&&&&&&&&&&&&&",
"&&&&&&&&&&&&&,{/(,&_&,(/{}&&&&&&&&&&&&&&",
"&&&&&&&&&&&&)!~{]&=&=&]{~!5&&&&&&&&&&&&&",
"&&&&&&&&&&&&-'>,&=&&&=&,>'-&&&&&&&&&&&&&",
"&&&&&&&&&&&&&--&=&&&&&=&--&&&&&&&&&&&&&&",
"&&&&&&&&&&&&&&&&&&&&&&&&&&&&&&&&&&&&&&&&",
"&&&&&&&&&&&&&&&&&&&&&&&&&&&&&&&&&&&&&&&&",
"&&&&&&&&&&&&&&&&&&&&&&&&&&&&&&&&&&&&&&&&",
"&&&&&&&&&&&&&&&&&&&&&&&&&&&&&&&&&&&&&&&&",
"&&&&&&&&&&&&&&&&&&&&&&&&&&&&&&&&&&&&&&&&",
"&&&&&&&&&&&&&&&&&&&&&&&&&&&&&&&&&&&&&&&&",
"&&&&&&&&&&&&&&&&&&&&&&&&&&&&&&&&&&&&&&&&",
"&&&&&&&&&&&&&&&&&&&&&&&&&&&&&&&&&&&&&&&&",
"&&&&&&&&&&&&&&&&&&&&&&&&&&&&&&&&&&&&&&&&",
"&&&&&&&&&&&&&&&&&&&&&&&&&&&&&&&&&&&&&&&&",
"&&&&&&&&&&&&&&&&&&&&&&&&&&&&&&&&&&&&&&&&",
"&&&&&&&&&&&&&&&&&&&&&&&&&&&&&&&&&&&&&&&&",
"6666666666666666666666666666666666666666"};
