/* XPM */
static char * maximize_inactive_xpm[] = {
"40 40 23 1",
" 	c None",
".	c #ADADAD",
"+	c #AEAEAE",
"@	c #AFAFAF",
"#	c #B0B0B0",
"$	c #B1B1B1",
"%	c #C6C6C6",
"&	c #CCCCCC",
"*	c #BBBBBB",
"=	c #A2A2A2",
"-	c #A1A1A1",
";	c #9C9C9C",
">	c #666666",
",	c #626262",
"'	c #676767",
")	c #656565",
"!	c #7A7A7A",
"~	c #959595",
"{	c #939393",
"]	c #9B9B9B",
"^	c #949494",
"/	c #C9C9C9",
"(	c #999999",
"....+++++++@+++++++@@@##$$$$....+++++++@",
"%%%%%%%%%%%%%%%%%%%%%%%%%%%%%%%%%%%%%%%%",
"&&&&&&&&&&&&&&&&&&&&&&&&&&&&&&&&&&&&&&&&",
"&&&&&&&&&&&&&&&&&&&&&&&&&&&&&&&&&&&&&&&&",
"&&&&&&&&&&&&&&&&&&&&&&&&&&&&&&&&&&&&&&&&",
"&&&&&&&&&&&&&&&&&&&&&&&&&&&&&&&&&&&&&&&&",
"&&&&&&&&&&&&&&&&&&&&&&&&&&&&&&&&&&&&&&&&",
"&&&&&&&&&&&&&&&&&&&&&&&&&&&&&&&&&&&&&&&&",
"&&&&&&&&&&&&&&&&&&&&&&&&&&&&&&&&&&&&&&&&",
"&&&&&&&&&&&&&&&&&&&&&&&&&&&&&&&&&&&&&&&&",
"&&&&&&&&&&&&&&&&&&&&&&&&&&&&&&&&&&&&&&&&",
"&&&&&&&&&&&&&&&&&&&&&&&&&&&&&&&&&&&&&&&&",
"&&&&&&&&&&&&*=-=========-=*&&&&&&&&&&&&&",
"&&&&&&&&&&&&;>,''''''''',>;&&&&&&&&&&&&&",
"&&&&&&&&&&&&-)!~{~~~~~{~!)-&&&&&&&&&&&&&",
"&&&&&&&&&&&&=']&&&&&&&&&]'=&&&&&&&&&&&&&",
"&&&&&&&&&&&&=>^/%/////%/^>=&&&&&&&&&&&&&",
"&&&&&&&&&&&&='~&/&&&&&/&~'=&&&&&&&&&&&&&",
"&&&&&&&&&&&&='~&/&&&&&/&~'=&&&&&&&&&&&&&",
"&&&&&&&&&&&&='~&/&&&&&/&~'=&&&&&&&&&&&&&",
"&&&&&&&&&&&&='~&/&&&&&/&~'=&&&&&&&&&&&&&",
"&&&&&&&&&&&&='~&/&&&&&/&~'=&&&&&&&&&&&&&",
"&&&&&&&&&&&&=>^/%/////%/^>=&&&&&&&&&&&&&",
"&&&&&&&&&&&&=']&&&&&&&&&]'=&&&&&&&&&&&&&",
"&&&&&&&&&&&&-)!~{~~~~~{~!)-&&&&&&&&&&&&&",
"&&&&&&&&&&&&;>,''''''''',>;&&&&&&&&&&&&&",
"&&&&&&&&&&&&*=-=========-=*&&&&&&&&&&&&&",
"&&&&&&&&&&&&&&&&&&&&&&&&&&&&&&&&&&&&&&&&",
"&&&&&&&&&&&&&&&&&&&&&&&&&&&&&&&&&&&&&&&&",
"&&&&&&&&&&&&&&&&&&&&&&&&&&&&&&&&&&&&&&&&",
"&&&&&&&&&&&&&&&&&&&&&&&&&&&&&&&&&&&&&&&&",
"&&&&&&&&&&&&&&&&&&&&&&&&&&&&&&&&&&&&&&&&",
"&&&&&&&&&&&&&&&&&&&&&&&&&&&&&&&&&&&&&&&&",
"&&&&&&&&&&&&&&&&&&&&&&&&&&&&&&&&&&&&&&&&",
"&&&&&&&&&&&&&&&&&&&&&&&&&&&&&&&&&&&&&&&&",
"&&&&&&&&&&&&&&&&&&&&&&&&&&&&&&&&&&&&&&&&",
"&&&&&&&&&&&&&&&&&&&&&&&&&&&&&&&&&&&&&&&&",
"&&&&&&&&&&&&&&&&&&&&&&&&&&&&&&&&&&&&&&&&",
"&&&&&&&&&&&&&&&&&&&&&&&&&&&&&&&&&&&&&&&&",
"(((((((((((((((((((((((((((((((((((((((("};
