/* XPM */
static char * title_4_inactive_xpm[] = {
"2 40 5 1",
" 	c None",
".	c #ADADAD",
"+	c #C6C6C6",
"@	c #CCCCCC",
"#	c #999999",
"..",
"++",
"@@",
"@@",
"@@",
"@@",
"@@",
"@@",
"@@",
"@@",
"@@",
"@@",
"@@",
"@@",
"@@",
"@@",
"@@",
"@@",
"@@",
"@@",
"@@",
"@@",
"@@",
"@@",
"@@",
"@@",
"@@",
"@@",
"@@",
"@@",
"@@",
"@@",
"@@",
"@@",
"@@",
"@@",
"@@",
"@@",
"@@",
"##"};
